<?xml version="1.0" standalone="no"?><!DOCTYPE svg PUBLIC "-//W3C//DTD SVG 1.1//EN" "http://www.w3.org/Graphics/SVG/1.1/DTD/svg11.dtd"><svg t="1489643574112" class="icon" style="" viewBox="0 0 1024 1024" version="1.1" xmlns="http://www.w3.org/2000/svg" p-id="1718" xmlns:xlink="http://www.w3.org/1999/xlink" width="200" height="200"><defs><style type="text/css"></style></defs><path d="M266.016 928.672c0 17.6-14.4 32-32 32l-137.536 0c-17.6 0-32-14.4-32-32l0-670.72c0-17.6 14.4-32 32-32l137.536 0c17.6 0 32 14.4 32 32L266.016 928.672zM231.552 295.424c0-17.6-14.4-32-32-32l-68.256 0c-17.6 0-32 14.4-32 32l0 3.712c0 17.6 14.4 32 32 32l68.256 0c17.6 0 32-14.4 32-32L231.552 295.424zM328.896 97.056c0-17.6 14.4-32 32-32l135.968 0c17.6 0 32 14.4 32 32l0 831.584c0 17.6-14.4 32-32 32l-135.968 0c-17.6 0-32-14.4-32-32L328.896 97.056zM499.328 131.52c0-17.6-14.4-32-32-32l-72.512 0c-17.6 0-32 14.4-32 32l0 5.856c0 17.6 14.4 32 32 32l72.512 0c17.6 0 32-14.4 32-32L499.328 131.52zM952.704 869.888c5.44 16.736-3.776 34.912-20.512 40.352l-130.784 42.624c-16.736 5.44-34.88-3.776-40.352-20.544L553.28 294.592c-5.44-16.736 3.776-34.912 20.512-40.352l130.816-42.624c16.736-5.44 34.88 3.776 40.32 20.544L952.704 869.888zM723.712 278.464c-5.44-16.736-23.616-25.984-40.352-20.544l-64.896 21.12c-16.736 5.44-25.952 23.584-20.512 40.352l1.152 3.488c5.44 16.736 23.616 25.984 40.352 20.544l64.896-21.12c16.736-5.44 25.952-23.584 20.512-40.352L723.712 278.464zM713.792 248.032" p-id="1719"></path></svg>