<?xml version="1.0" standalone="no"?><!DOCTYPE svg PUBLIC "-//W3C//DTD SVG 1.1//EN" "http://www.w3.org/Graphics/SVG/1.1/DTD/svg11.dtd"><svg t="1489652729802" class="icon" style="" viewBox="0 0 1024 1024" version="1.1" xmlns="http://www.w3.org/2000/svg" p-id="5521" xmlns:xlink="http://www.w3.org/1999/xlink" width="200" height="200"><defs><style type="text/css"></style></defs><path d="M886.724 740.308h-263.051c-19.853 0-32.261-12.409-32.261-32.261s12.409-32.261 32.261-32.261h260.57c19.853 0 32.261 12.409 32.261 32.261 2.482 19.852-12.409 32.261-29.779 32.261zM886.724 608.784h-263.051c-19.853 0-32.261-12.409-32.261-32.261s12.409-32.261 32.261-32.261h260.57c19.853 0 32.261 12.409 32.261 32.261s-12.409 32.261-29.779 32.261zM755.199 447.478c0-143.933-116.636-260.57-260.57-260.57s-260.57 116.636-260.57 260.57c0 96.784 54.596 183.64 134.007 228.308 12.409 7.445 19.852 9.926 32.261 17.371 9.926 9.926 9.926 27.297 0 39.705-7.445 7.445-19.852 9.926-44.669 9.926-94.301 2.482-168.75 71.966-183.64 163.787h-67.004c12.409-101.746 81.892-183.64 173.713-210.938-69.485-62.040-111.672-146.415-111.672-245.68 0-183.64 146.415-330.055 327.574-330.055s325.091 146.415 325.091 325.091c0 37.224-64.523 47.152-64.523 2.482zM623.672 804.83h260.57c19.852 0 32.261 12.409 32.261 32.261s-12.409 32.261-32.261 32.261h-260.57c-19.853 0-32.261-12.409-32.261-32.261 0-17.371 17.371-32.261 32.261-32.261z" p-id="5522"></path></svg>