<?xml version="1.0" standalone="no"?><!DOCTYPE svg PUBLIC "-//W3C//DTD SVG 1.1//EN" "http://www.w3.org/Graphics/SVG/1.1/DTD/svg11.dtd"><svg t="1489652661015" class="icon" style="" viewBox="0 0 1024 1024" version="1.1" xmlns="http://www.w3.org/2000/svg" p-id="4761" xmlns:xlink="http://www.w3.org/1999/xlink" width="200" height="200"><defs><style type="text/css"></style></defs><path d="M512.533143 64.110133c-210.683397 0-381.474224 170.791851-381.474224 381.474224 0 108.899222 45.706995 207.062939 118.891807 276.567943l-0.26913 0 171.090657 177.998997c18.682501 22.798239 47.810912 37.530778 80.634482 37.530778 30.786167 0 58.322313-12.966313 77.04677-33.380248l0.030699 0 186.444343-172.791391C844.051605 661.611459 894.00532 559.459918 894.00532 445.584358 894.00532 234.900961 723.214493 64.110133 512.533143 64.110133zM517.981225 621.602234c-93.300966 0-168.93762-75.636654-168.93762-168.93762s75.636654-168.93762 168.93762-168.93762c93.303013 0 168.94069 75.636654 168.94069 168.93762S611.284237 621.602234 517.981225 621.602234z" p-id="4762"></path></svg>