<?xml version="1.0" standalone="no"?><!DOCTYPE svg PUBLIC "-//W3C//DTD SVG 1.1//EN" "http://www.w3.org/Graphics/SVG/1.1/DTD/svg11.dtd"><svg t="1489643509248" class="icon" style="" viewBox="0 0 1024 1024" version="1.1" xmlns="http://www.w3.org/2000/svg" p-id="2107" xmlns:xlink="http://www.w3.org/1999/xlink" width="200" height="200"><defs><style type="text/css"></style></defs><path d="M930.08 704.512c-24.512-14.56-98.496-55.104-134.368-74.72-18.176-9.92-52.32-15.424-75.52 10.464l-0.032 0.032c-16.8 19.424-50.976 55.968-69.312 75.456l0 0c-0.064 0.064-0.128 0.128-0.192 0.16-1.184 1.28-2.368 2.496-3.424 3.616-6.272 6.592-14.112 13.248-30.496 13.312-28.992-0.16-87.968-16.608-182.976-112.736-143.264-144.928-148.128-199.936-132.416-214.944 15.648-14.976 61.376-63.712 61.376-87.456 0-25.76-4.928-48.576-11.168-65.504-16.768-45.824-48.064-124.64-62.592-158.368-5.824-13.504-21.12-29.376-45.024-29.824-13.408 0-31.712 0-45.504 0-14.752 0-32.576 6.528-46.72 18.752-34.336 28.16-87.648 85.664-87.648 154.976 0 22.368 0 36.768 0 50.272 0 21.408 3.392 52 11.584 74.272 28.096 80.352 107.52 249.472 238.88 374.016 167.36 158.72 319.104 223.712 453.92 223.712 85.696 0 143.104-53.344 171.232-91.264 14.752-20.32 20.224-41.984 20.224-58.08 0-18.592 0-43.872 0-59.712C959.936 736 946.912 714.208 930.08 704.512z" p-id="2108"></path></svg>