<?xml version="1.0" standalone="no"?><!DOCTYPE svg PUBLIC "-//W3C//DTD SVG 1.1//EN" "http://www.w3.org/Graphics/SVG/1.1/DTD/svg11.dtd"><svg t="1489643635282" class="icon" style="" viewBox="0 0 1024 1024" version="1.1" xmlns="http://www.w3.org/2000/svg" p-id="1964" xmlns:xlink="http://www.w3.org/1999/xlink" width="200" height="200"><defs><style type="text/css"></style></defs><path d="M512.012791 990.610542c-64.620763 0-127.290081-12.653181-186.30415-37.612643-57.004295-24.108071-108.177791-58.624189-152.123676-102.570073s-78.462003-95.133707-102.56905-152.122653c-24.972764-59.014068-37.640272-121.697713-37.640272-186.305173 0-64.594157 12.667507-127.291105 37.640272-186.30415 24.108071-56.990992 58.623165-108.177791 102.56905-152.124699 43.945885-43.945885 95.119381-78.447676 152.123676-102.554724 59.014068-24.959461 121.683387-37.626969 186.30415-37.626969 64.594157 0 127.292128 12.667507 186.277544 37.626969 57.032948 24.108071 108.204397 58.608839 152.151305 102.554724 43.947931 43.946908 78.434373 95.133707 102.542444 152.124699 24.972764 59.013045 37.640272 121.709993 37.640272 186.30415 0 64.60746-12.667507 127.291105-37.640272 186.305173-24.108071 56.988945-58.594513 108.176768-102.542444 152.122653-43.945885 43.945885-95.117334 78.463026-152.151305 102.570073C639.303896 977.957361 576.606948 990.610542 512.012791 990.610542L512.012791 990.610542zM512.012791 74.977645c-240.99168 0-437.034635 196.056258-437.034635 437.021332 0 240.980423 196.042955 437.035658 437.034635 437.035658 240.96712 0 437.010075-196.055235 437.010075-437.035658C949.021843 271.0206 752.978888 74.977645 512.012791 74.977645L512.012791 74.977645zM512.012791 74.977645" p-id="1965"></path><path d="M634.00317 609.18339 456.181205 609.18339c-3.822049 0-6.948249 3.111874-6.948249 6.963599 0 3.835352 3.1262 6.961552 6.948249 6.961552L634.00317 623.10854c3.849678 0 6.974855-3.1262 6.974855-6.961552C640.979048 612.30959 637.852848 609.18339 634.00317 609.18339L634.00317 609.18339zM634.00317 609.18339" p-id="1966"></path><path d="M634.00317 524.263301 456.181205 524.263301c-3.822049 0-6.948249 3.125177-6.948249 6.961552 0 3.823072 3.1262 6.933923 6.948249 6.933923L634.00317 538.158776c3.849678 0 6.974855-3.110851 6.974855-6.933923C640.979048 527.388479 637.852848 524.263301 634.00317 524.263301L634.00317 524.263301zM634.00317 524.263301" p-id="1967"></path><path d="M634.00317 439.34219 456.181205 439.34219c-3.822049 0-6.948249 3.125177-6.948249 6.948249 0 3.836375 3.1262 6.948249 6.948249 6.948249L634.00317 453.238688c3.849678 0 6.974855-3.111874 6.974855-6.948249C640.979048 442.466344 637.852848 439.34219 634.00317 439.34219L634.00317 439.34219zM634.00317 439.34219" p-id="1968"></path><path d="M418.512281 424.204421l-30.274514 0c-3.822049 0-6.947226 3.111874-6.947226 6.961552l0 30.246885c0 3.864004 3.125177 6.947226 6.947226 6.947226l30.274514 0c3.822049 0 6.947226-3.083222 6.947226-6.947226l0-30.246885C425.459506 427.316296 422.334329 424.204421 418.512281 424.204421L418.512281 424.204421zM418.512281 424.204421" p-id="1969"></path><path d="M418.512281 509.139859l-30.274514 0c-3.822049 0-6.947226 3.097548-6.947226 6.948249l0 30.260188c0 3.836375 3.125177 6.947226 6.947226 6.947226l30.274514 0c3.822049 0 6.947226-3.110851 6.947226-6.947226L425.459506 516.087085C425.459506 512.237407 422.334329 509.139859 418.512281 509.139859L418.512281 509.139859zM418.512281 509.139859" p-id="1970"></path><path d="M418.512281 594.060971l-30.274514 0c-3.822049 0-6.947226 3.124154-6.947226 6.947226l0 30.245861c0 3.851725 3.125177 6.961552 6.947226 6.961552l30.274514 0c3.822049 0 6.947226-3.109828 6.947226-6.961552l0-30.245861C425.459506 597.171822 422.334329 594.060971 418.512281 594.060971L418.512281 594.060971zM418.512281 594.060971" p-id="1971"></path><path d="M712.128505 336.117201l-74.944899-73.885777c-3.235694-3.209088-7.616468-5.009084-12.193717-5.009084L328.331375 257.222339c-9.598612 0-17.382902 7.78429-17.382902 17.382902l0 478.261595c0 9.597589 7.78429 17.381879 17.382902 17.381879l371.605459 0c9.597589 0 17.381879-7.78429 17.381879-17.381879l0-404.390143C717.318714 343.818603 715.450157 339.367221 712.128505 336.117201L712.128505 336.117201zM345.715301 735.511563 345.715301 291.989167l268.867564 0 0 62.501496c0 5.762237 4.659113 10.408047 10.407024 10.408047l57.56302 0 0 370.612852L345.715301 735.511563 345.715301 735.511563 345.715301 735.511563zM345.715301 735.511563" p-id="1972"></path></svg>