<?xml version="1.0" standalone="no"?><!DOCTYPE svg PUBLIC "-//W3C//DTD SVG 1.1//EN" "http://www.w3.org/Graphics/SVG/1.1/DTD/svg11.dtd"><svg t="1489643652935" class="icon" style="" viewBox="0 0 1024 1024" version="1.1" xmlns="http://www.w3.org/2000/svg" p-id="2094" xmlns:xlink="http://www.w3.org/1999/xlink" width="200" height="200"><defs><style type="text/css"></style></defs><path d="M732.900766 89.589106c-34.467404-34.467404-74.425191-58.890894-119.960511-75.558128l-31.155745-11.111489 0 219.76783c0 13.420936-9.869617 23.421277-23.268766 23.421277l-93.271149 0c-13.290213 0-23.246979-9.978553-23.246979-23.421277L441.997617 2.919489l-31.177532 11.046128c-45.513532 16.667234-85.536681 41.112511-119.982298 75.53634-25.99217 26.013957-46.101787 55.644596-61.04783 87.192511-0.196085 0.23966-0.413957 0.435745-0.63183 0.697191 0 0.261447 0 0.457532-0.021787 0.740766-54.337362 116.387404-34.03166 259.878128 61.701447 355.611234 30.044596 30.001021 64.446638 53.313362 104.469787 68.869447l0 302.101787c0 7.95234 0.871489 15.817532 2.418383 23.508426 0.043574 0.23966 0.130723 0.435745 0.196085 0.697191 4.597106 22.070468 15.403574 42.681191 31.722213 59.065191 16.340426 16.231489 36.820426 26.972596 58.781957 31.656851 0.39217 0.087149 0.718979 0.283234 1.111149 0.348596 7.690894 1.546894 15.534298 2.396596 23.486638 2.396596 7.930553 0 15.773957-0.827915 23.421277-2.331234 0.675404-0.174298 1.329021-0.457532 1.960851-0.588255 21.700085-4.814979 41.831489-15.381787 57.866894-31.460766 22.28834-22.266553 34.42383-52.245787 34.42383-83.270809 0-7.669106-2.222298-301.992851-2.222298-301.992851 39.957787-15.556085 74.425191-38.824851 104.426213-68.913021C855.018213 411.691574 855.018213 211.706553 732.900766 89.589106zM561.870979 955.718809c-13.159489 13.246638-29.499915 20.850383-49.130213 21.11183-1.699404-0.021787-3.268085-0.39217-4.945702-0.479319-7.756255-0.78434-15.272851-2.374809-22.28834-5.185362-25.294979-10.741106-42.550468-35.491404-42.550468-65.230979l0-14.793532c3.050213-13.246638 9.172426-25.447489 18.976681-35.251745 13.312-13.268426 29.957447-21.046468 50.023489-21.046468 19.957106 0 36.558979 7.756255 49.914553 21.046468 13.268426 13.312 21.11183 29.93566 21.11183 49.93634C581.828085 924.737362 575.139404 942.406809 561.870979 955.718809z" p-id="2095"></path></svg>